<?xml version="1.0" encoding="utf-8"?>
<!-- Generator: Adobe Illustrator 26.0.0, SVG Export Plug-In . SVG Version: 6.00 Build 0)  -->
<svg version="1.1" id="Layer_1" xmlns="http://www.w3.org/2000/svg" xmlns:xlink="http://www.w3.org/1999/xlink" x="0px" y="0px"
	 viewBox="0 0 832.7 792.1" style="enable-background:new 0 0 832.7 792.1;" xml:space="preserve">
<style type="text/css">
	.st0{clip-path:url(#SVGID_00000125592439162339207510000002986269398164973496_);}
	.st1{clip-path:url(#SVGID_00000052813962435679825590000006468333519471007621_);}
	.st2{clip-path:url(#SVGID_00000088846600681236504950000008944514851331736979_);}
	.st3{clip-path:url(#SVGID_00000061436246819711640880000013817579629078702477_);}
	.st4{clip-path:url(#SVGID_00000133502463859624379500000007831398309375691453_);}
</style>
<g>
	<g>
		<defs>
			<path id="SVGID_1_" d="M193.3,293.3c-0.2,0.1-0.4,0.2-0.6,0.3c0,0-0.1,0-0.1,0.1c-1.8,0.9-3.6,1.8-5.3,2.7
				C51,365.5,0,375.6,0,375.6s34.8,18.3,155.7,138c0.2,0.2,0.3,0.3,0.5,0.5l0.1,0.1c0,0,0.1,0,0.1,0.1
				c23.1,22.7,54.2,39.1,89.9,44.9c90,14.7,164.5-37.4,177.1-114.5s-30.7-148.4-131.5-164.8C256.6,274.1,222.3,279.5,193.3,293.3z"
				/>
		</defs>
		<clipPath id="SVGID_00000014616844081421381100000006371034043039750581_">
			<use xlink:href="#SVGID_1_"  style="overflow:visible;"/>
		</clipPath>
		
			<g transform="matrix(1 0 0 1 0 1.525879e-05)" style="clip-path:url(#SVGID_00000014616844081421381100000006371034043039750581_);">
			
				<image style="overflow:visible;enable-background:new    ;" width="3857" height="3857" xlink:href="petal_performance-art.jpg"  transform="matrix(0.1093 0 0 0.1093 0 233.7414)">
			</image>
		</g>
	</g>
</g>
<g>
	<g>
		<defs>
			<path id="SVGID_00000031202556024975975660000002800028134659566001_" d="M530,271.2c6.9-2.2,13.7-3.9,20.6-5.2
				c-1.3-33.2-11.9-63.7-29.1-88.4c-0.1-0.2-0.2-0.4-0.4-0.5L521,177c-1.1-1.6-2.3-3.2-3.5-4.8C427.4,48.7,409.2,0,409.2,0
				s-12.5,37.3-111.1,175.9c-0.1,0.2-0.3,0.4-0.4,0.6l-0.1,0.1c0,0,0,0.1-0.1,0.1c-18.7,26.5-29.8,59.8-29.8,96
				c0,91.2,63.4,156.3,141.5,156.3c3.1,0,6.1-0.1,9.2-0.3C410,361.9,452.5,295.7,530,271.2z"/>
		</defs>
		<clipPath id="SVGID_00000114047561983810875440000001276365915769892017_">
			<use xlink:href="#SVGID_00000031202556024975975660000002800028134659566001_"  style="overflow:visible;"/>
		</clipPath>
		<g style="clip-path:url(#SVGID_00000114047561983810875440000001276365915769892017_);">
			
				<image style="overflow:visible;enable-background:new    ;" width="4032" height="2688" xlink:href="petal_circus.jpg"  transform="matrix(0.1726 0 0 0.1596 65 0)">
			</image>
		</g>
	</g>
</g>
<g>
	<g>
		<defs>
			<path id="SVGID_00000003083320053560439450000007787747255783983015_" d="M631.4,270.9c-0.2-0.1-0.5-0.1-0.7-0.2
				c-0.1,0-0.1,0-0.2-0.1h-0.1c-30.9-9.8-66-10.3-100.5,0.6C443.5,298.6,400.6,377.9,423.3,452c61.9-47.4,151.7-34.4,207.2,37.8
				c8.6,11.1,15.5,22.9,20.9,35.1c18.2-10.8,33.7-24.7,45.9-40.5c0.1-0.2,0.3-0.3,0.4-0.5l0.1-0.1c1.2-1.6,2.4-3.2,3.5-4.8
				c90.3-123.2,131.3-155.3,131.3-155.3S793.3,323,631.4,270.9z"/>
		</defs>
		<clipPath id="SVGID_00000173858994526053399640000015719938739725798315_">
			<use xlink:href="#SVGID_00000003083320053560439450000007787747255783983015_"  style="overflow:visible;"/>
		</clipPath>
		<g style="clip-path:url(#SVGID_00000173858994526053399640000015719938739725798315_);">
			
				<image style="overflow:visible;enable-background:new    ;" width="750" height="741" xlink:href="petal_visual-art.jpg"  transform="matrix(0.5539 0 0 0.5539 417.289 173.8909)">
			</image>
		</g>
	</g>
</g>
<g>
	<g>
		<defs>
			<path id="SVGID_00000120529989624470520090000009387465093031108489_" d="M665.5,584.9c0-0.2,0-0.5,0-0.7c0-0.1,0-0.1,0-0.2v-0.1
				c-1.4-32.4-12.8-65.6-34.9-94.3C575,417.5,485.1,404.5,423.2,452c59,47.3,69.5,134.8,16.6,206.4c-5.7,7.7-11.8,14.7-18.4,21.1
				c19.2,19.1,42.1,32.7,66,40.3c0.2,0.1,0.4,0.1,0.6,0.2h0.1c1.9,0.6,3.8,1.1,5.7,1.7C640.5,764.5,684.6,792,684.6,792
				S671.8,754.9,665.5,584.9z"/>
		</defs>
		<clipPath id="SVGID_00000032609563006369614570000009326999831101504653_">
			<use xlink:href="#SVGID_00000120529989624470520090000009387465093031108489_"  style="overflow:visible;"/>
		</clipPath>
		<g transform="matrix(1 0 0 1 0 0)" style="clip-path:url(#SVGID_00000032609563006369614570000009326999831101504653_);">
			
				<image style="overflow:visible;enable-background:new    ;" width="867" height="586" xlink:href="petal_music.jpg"  transform="matrix(0.6308 0 0 0.6308 252.9261 422.3441)">
			</image>
		</g>
	</g>
</g>
<g>
	<g>
		<defs>
			<path id="SVGID_00000096060711321796058640000001234012373089406862_" d="M422.2,451.2c-15.6,73.5-88.4,122.2-175.8,107.9
				c-21.6-3.5-41.5-10.9-59-21.2c-5.1,15.3-7.8,30.9-8.2,46.3c0,0.2,0,0.4,0,0.7v0.1c0,2-0.1,4,0,5.9c-0.7,152.8-15,202.8-15,202.8
				s32.2-22.6,193.8-75.5c0.2-0.1,0.5-0.1,0.7-0.2c0.1,0,0.1,0,0.2-0.1h0.1c30.8-10.2,59.5-30.4,81-59.5
				C493,586.4,482.1,498.3,422.2,451.2z"/>
		</defs>
		<clipPath id="SVGID_00000041973790778818313070000012944907919116767401_">
			<use xlink:href="#SVGID_00000096060711321796058640000001234012373089406862_"  style="overflow:visible;"/>
		</clipPath>
		<g style="clip-path:url(#SVGID_00000041973790778818313070000012944907919116767401_);">
			
				<image style="overflow:visible;enable-background:new    ;" width="1201" height="659" xlink:href="petal_digital-media.jpg"  transform="matrix(0.5173 0 0 0.5173 3.6685 451.2)">
			</image>
		</g>
	</g>
</g>
</svg>
