<?xml version="1.0" encoding="utf-8"?>
<!-- Generator: Adobe Illustrator 25.0.0, SVG Export Plug-In . SVG Version: 6.00 Build 0)  -->
<svg version="1.1" id="Calque_1" xmlns="http://www.w3.org/2000/svg" xmlns:xlink="http://www.w3.org/1999/xlink" x="0px" y="0px"
	 viewBox="0 0 15 15" style="enable-background:new 0 0 15 15;" xml:space="preserve">
<style type="text/css">
	.st0{fill:#FFFFFF;}
</style>
<path class="st0" d="M12.1,1.8c0-1-0.8-1.8-1.8-1.8C9.9,0,9.4,0.2,9.1,0.5L3.4,6.2C3.1,6.5,2.9,7,2.9,7.5c0,0,0,0,0,0.1
	c0,0.5,0.2,1,0.5,1.3l5.7,5.7c0.7,0.7,1.8,0.6,2.5-0.1c0.7-0.7,0.7-1.8,0-2.5L7.1,7.5L11.6,3C11.9,2.7,12.1,2.3,12.1,1.8z"/>
</svg>
