<svg width="22" height="16" viewBox="0 0 22 16" fill="none" xmlns="http://www.w3.org/2000/svg">
<path d="M11 7.04799L21.0414 0.479999C20.6377 0.171691 20.1475 0.00344084 19.6429 0H2.35716C1.85252 0.00344084 1.36229 0.171691 0.958588 0.479999L11 7.04799Z" fill="#F9FDFD"/>
<path d="M11.4243 8.67201L11.2907 8.73601H11.2279C11.1555 8.76892 11.0787 8.79049 11 8.80001C10.9348 8.80837 10.8688 8.80837 10.8036 8.80001H10.7407L10.6071 8.73601L0.0785713 1.80801C0.0282685 2.00125 0.0018737 2.20012 0 2.40001V13.6C0 14.2365 0.248341 14.847 0.690391 15.2971C1.13244 15.7471 1.73199 16 2.35714 16H19.6429C20.268 16 20.8676 15.7471 21.3096 15.2971C21.7517 14.847 22 14.2365 22 13.6V2.40001C21.9981 2.20012 21.9717 2.00125 21.9214 1.80801L11.4243 8.67201Z" fill="#F9FDFD"/>
</svg>
