<svg width="28" height="28" viewBox="0 0 28 28" fill="none" xmlns="http://www.w3.org/2000/svg">
<path fill-rule="evenodd" clip-rule="evenodd" d="M20.2903 5.81494C19.8655 5.63905 19.4103 5.54857 18.9505 5.54868C18.4907 5.54878 18.0355 5.63947 17.6108 5.81557C17.1861 5.99166 16.8002 6.2497 16.4753 6.57495L15.2009 7.84939C14.6883 8.36195 13.8573 8.36195 13.3447 7.84939C12.8321 7.33682 12.8321 6.50579 13.3447 5.99323L14.6183 4.71966C14.6183 4.71958 14.6184 4.7195 14.6185 4.71942C14.6186 4.71936 14.6186 4.7193 14.6187 4.71923C15.1873 4.15024 15.8624 3.69882 16.6054 3.39073C17.3486 3.08257 18.1453 2.92386 18.9499 2.92368C19.7545 2.92349 20.5512 3.08183 21.2946 3.38964C22.038 3.69746 22.7134 4.14872 23.2823 4.71765C23.8513 5.28657 24.3025 5.96202 24.6103 6.7054C24.9182 7.44878 25.0765 8.24551 25.0763 9.0501C25.0761 9.85469 24.9174 10.6514 24.6093 11.3946C24.3012 12.1376 23.8497 12.8127 23.2808 13.3813C23.2806 13.3814 23.2805 13.3816 23.2803 13.3817L20.1872 16.4749C19.6184 17.0436 18.9432 17.4948 18.2001 17.8026C17.457 18.1104 16.6605 18.2689 15.8561 18.2689C15.0518 18.2689 14.2553 18.1104 13.5122 17.8026C12.7691 17.4948 12.0939 17.0436 11.5251 16.4749C11.0125 15.9623 11.0125 15.1313 11.5251 14.6187C12.0377 14.1062 12.8687 14.1062 13.3813 14.6187C13.7063 14.9437 14.0921 15.2015 14.5167 15.3774C14.9414 15.5533 15.3965 15.6439 15.8561 15.6439C16.3158 15.6439 16.7709 15.5533 17.1955 15.3774C17.6202 15.2015 18.006 14.9437 18.331 14.6187L21.425 11.5247C21.7503 11.1998 22.0083 10.8139 22.1844 10.3892C22.3605 9.96449 22.4512 9.50925 22.4513 9.04949C22.4514 8.58973 22.3609 8.13445 22.185 7.70966C22.0092 7.28487 21.7513 6.8989 21.4262 6.5738C21.1011 6.2487 20.7151 5.99084 20.2903 5.81494Z" fill="#F9FDFD"/>
<path fill-rule="evenodd" clip-rule="evenodd" d="M12.1439 12.3561C11.6842 12.3561 11.2291 12.4467 10.8045 12.6226C10.3798 12.7985 9.99398 13.0563 9.66898 13.3813L6.57495 16.4753C6.2497 16.8002 5.99166 17.1861 5.81557 17.6108C5.63947 18.0355 5.54878 18.4907 5.54868 18.9505C5.54857 19.4103 5.63905 19.8655 5.81494 20.2903C5.99084 20.7151 6.2487 21.1011 6.5738 21.4262C6.8989 21.7513 7.28487 22.0092 7.70966 22.1851C8.13445 22.3609 8.58973 22.4514 9.04949 22.4513C9.50925 22.4512 9.96449 22.3605 10.3892 22.1844C10.8139 22.0083 11.1997 21.7503 11.5247 21.425L12.7989 20.1508C13.3115 19.6382 14.1425 19.6382 14.6551 20.1508C15.1677 20.6634 15.1677 21.4944 14.6551 22.007L13.3817 23.2803C13.3816 23.2805 13.3814 23.2806 13.3813 23.2808C12.8127 23.8497 12.1376 24.3012 11.3946 24.6093C10.6514 24.9174 9.85469 25.0761 9.0501 25.0763C8.24552 25.0765 7.44878 24.9182 6.7054 24.6104C5.96202 24.3025 5.28657 23.8513 4.71765 23.2823C4.14872 22.7134 3.69746 22.038 3.38964 21.2946C3.08183 20.5512 2.92349 19.7545 2.92368 18.9499C2.92386 18.1453 3.08257 17.3486 3.39073 16.6054C3.69882 15.8624 4.15024 15.1873 4.71923 14.6187C4.71934 14.6186 4.71944 14.6185 4.71955 14.6184C4.71959 14.6183 4.71962 14.6183 4.71966 14.6183L7.81282 11.5251C8.38158 10.9564 9.0568 10.5052 9.79992 10.1974C10.543 9.88957 11.3395 9.73114 12.1439 9.73114C12.9482 9.73114 13.7447 9.88957 14.4878 10.1974C15.2309 10.5052 15.9061 10.9564 16.4749 11.5251C16.9874 12.0377 16.9874 12.8687 16.4749 13.3813C15.9623 13.8938 15.1313 13.8938 14.6187 13.3813C14.2937 13.0563 13.9079 12.7985 13.4832 12.6226C13.0586 12.4467 12.6035 12.3561 12.1439 12.3561Z" fill="#F9FDFD"/>
</svg>
