<svg width="21" height="25" viewBox="0 0 21 25" fill="none" xmlns="http://www.w3.org/2000/svg">
<path fill-rule="evenodd" clip-rule="evenodd" d="M10.3125 25C10.3125 25 20.625 18.1818 20.625 10.2273C20.625 7.51483 19.5385 4.91348 17.6045 2.9955C15.6706 1.07751 13.0475 0 10.3125 0C7.57746 0 4.95443 1.07751 3.02046 2.9955C1.08649 4.91348 0 7.51483 0 10.2273C0 18.1818 10.3125 25 10.3125 25ZM13.75 10.2273C13.75 12.1101 12.211 13.6364 10.3125 13.6364C8.41402 13.6364 6.875 12.1101 6.875 10.2273C6.875 8.34448 8.41402 6.81818 10.3125 6.81818C12.211 6.81818 13.75 8.34448 13.75 10.2273Z" fill="#F9FDFD"/>
</svg>
